<svg xmlns="http://www.w3.org/2000/svg" viewBox="0 0 204.18 240.46"><defs><style>.cls-1{fill:#99bd4f;}</style></defs><g id="Calque_2" data-name="Calque 2"><g id="Calque_1-2" data-name="Calque 1"><path class="cls-1" d="M199.08,149.18c-5.18,8.94-20.48,50.06-96.51,91l-.48.26-.46-.25c-76.06-41-91.35-82.09-96.54-91S-11,85.77,33,65.43C73.46,46.72,99.91,84,103.91,90.14c3.49-6.13,26.81-43.42,67.26-24.71C215.17,85.77,204.29,140.18,199.08,149.18Z"/><path class="cls-1" d="M49,4.23S50,53.12,95.18,48.6C95.18,48.6,103.81,7.93,49,4.23Z"/><path class="cls-1" d="M97.23,68.94l11.92,1.64S109,24.77,152.9,19.43c0,0-30.2,17.26-32.66,32.05,0,0,43.75,8.62,58.54-50.54C178.78.94,107.59-13.3,97.23,68.94Z"/></g></g></svg>